<svg width="356.836" height="75.293" viewBox="0 0 356.836 75.293" xmlns="http://www.w3.org/2000/svg"><g id="svgGroup" stroke-linecap="round" fill-rule="evenodd" font-size="9pt" stroke="#000" stroke-width="0.25mm" fill="#000" style="stroke:#000;stroke-width:0.25mm;fill:#000"><path d="M 198.877 69.775 L 198.877 73.682 L 176.611 73.682 L 176.611 69.775 L 180.713 69.482 Q 181.592 69.385 182.251 68.799 A 1.913 1.913 0 0 0 182.908 67.4 A 2.525 2.525 0 0 0 182.91 67.285 L 182.91 41.504 A 14.838 14.838 0 0 0 182.597 38.374 Q 182.109 36.11 180.859 34.399 A 5.837 5.837 0 0 0 178.46 32.53 Q 176.357 31.592 172.998 31.592 A 19.301 19.301 0 0 0 169.9 31.854 A 25.455 25.455 0 0 0 167.31 32.422 A 27.731 27.731 0 0 0 164.812 33.223 Q 163.598 33.68 162.573 34.22 A 16.143 16.143 0 0 0 162.109 34.473 L 162.109 67.285 A 3.057 3.057 0 0 0 162.219 68.14 Q 162.498 69.099 163.492 69.378 A 3.13 3.13 0 0 0 164.111 69.482 L 168.408 69.775 L 168.408 73.682 L 145.898 73.682 L 145.898 69.775 L 150.684 69.482 A 3.151 3.151 0 0 0 151.546 69.311 Q 152.503 68.962 152.72 67.941 A 3.16 3.16 0 0 0 152.783 67.285 L 152.783 7.178 L 145.313 7.178 L 145.313 3.857 L 158.105 0 L 162.109 0 L 162.109 30.469 A 39.486 39.486 0 0 1 163.547 29.621 Q 164.249 29.224 165.062 28.795 A 89.084 89.084 0 0 1 166.797 27.905 A 50.347 50.347 0 0 1 172.852 25.366 Q 176.025 24.268 178.613 24.268 Q 184.375 24.268 188.281 27.979 A 11.487 11.487 0 0 1 191.203 32.668 Q 192.188 35.532 192.188 39.404 L 192.188 67.285 Q 192.188 68.213 192.847 68.799 Q 193.506 69.385 194.385 69.482 L 198.877 69.775 Z M 0 71.582 L 0 53.857 L 6.299 53.857 L 7.617 65.186 A 2.061 2.061 0 0 0 7.769 65.678 Q 7.933 66.049 8.252 66.455 A 5.27 5.27 0 0 0 8.583 66.839 Q 8.942 67.215 9.277 67.383 A 0.897 0.897 0 0 1 9.375 67.412 Q 9.818 67.562 11.847 68.432 A 290.187 290.187 0 0 1 12.134 68.555 A 11.476 11.476 0 0 0 14.169 69.194 Q 16.273 69.663 19.195 69.677 A 37.819 37.819 0 0 0 19.385 69.678 A 21.536 21.536 0 0 0 24.039 69.201 A 15.069 15.069 0 0 0 29.932 66.553 A 10.03 10.03 0 0 0 34.017 59.215 A 13.79 13.79 0 0 0 34.082 57.861 A 9.168 9.168 0 0 0 33.534 54.654 A 8.372 8.372 0 0 0 32.397 52.563 A 15.864 15.864 0 0 0 29.608 49.684 A 19.496 19.496 0 0 0 28.027 48.535 Q 25.342 46.777 22.29 45.337 A 841.242 841.242 0 0 1 19.318 43.927 A 717.778 717.778 0 0 1 16.504 42.578 Q 12.402 40.625 8.887 38.403 A 18.761 18.761 0 0 1 4.076 34.1 A 17.712 17.712 0 0 1 3.223 32.91 Q 1.264 29.927 1.091 25.443 A 22.906 22.906 0 0 1 1.074 24.561 Q 1.074 18.604 4.102 14.209 A 19.652 19.652 0 0 1 11.315 7.909 A 23.671 23.671 0 0 1 12.354 7.397 Q 17.578 4.98 24.17 4.98 Q 29.116 4.98 32.986 5.871 A 27.662 27.662 0 0 1 33.643 6.03 A 148.82 148.82 0 0 1 37.284 7.009 Q 38.988 7.492 40.492 7.969 A 87.198 87.198 0 0 1 40.918 8.105 L 41.797 8.398 L 41.797 23.975 L 36.084 23.975 L 34.57 14.404 A 1.651 1.651 0 0 0 34.443 13.952 A 1.232 1.232 0 0 0 33.96 13.403 A 5.258 5.258 0 0 1 33.008 12.646 A 2.557 2.557 0 0 0 32.804 12.513 Q 32.282 12.197 30.845 11.5 A 99.335 99.335 0 0 0 30.591 11.377 A 7.611 7.611 0 0 0 29.129 10.867 Q 27.671 10.504 25.572 10.424 A 32.677 32.677 0 0 0 24.316 10.4 A 17.393 17.393 0 0 0 20.367 10.823 Q 17.078 11.589 14.844 13.745 A 11.155 11.155 0 0 0 11.38 21.852 A 14.643 14.643 0 0 0 11.377 22.168 A 9.459 9.459 0 0 0 14.375 29.253 A 11.999 11.999 0 0 0 14.966 29.785 A 23.923 23.923 0 0 0 18.026 31.949 Q 21.029 33.763 25.293 35.4 Q 34.375 38.818 39.331 43.091 A 13.998 13.998 0 0 1 44.098 52.069 A 20.204 20.204 0 0 1 44.287 54.883 A 18.913 18.913 0 0 1 42.061 63.718 A 22.676 22.676 0 0 1 41.577 64.6 A 18.01 18.01 0 0 1 37.042 69.744 A 24.888 24.888 0 0 1 33.032 72.29 Q 28.524 74.61 21.872 75.138 A 51.902 51.902 0 0 1 17.773 75.293 A 52.558 52.558 0 0 1 13.373 75.119 Q 10.666 74.891 8.398 74.365 Q 4.395 73.438 2.197 72.51 L 0 71.582 Z M 250.439 69.775 L 250.439 73.682 L 235.645 73.682 L 234.326 67.773 L 232.837 68.848 A 31.273 31.273 0 0 1 231.701 69.627 Q 230.508 70.409 228.906 71.338 A 31.998 31.998 0 0 1 225.307 73.123 A 37.718 37.718 0 0 1 223.511 73.828 A 17.517 17.517 0 0 1 218.91 74.851 A 16.069 16.069 0 0 1 217.627 74.902 A 12.835 12.835 0 0 1 208.423 71.289 A 11.916 11.916 0 0 1 204.972 64.88 A 17.499 17.499 0 0 1 204.639 61.377 Q 204.639 58.594 205.64 56.201 A 8.34 8.34 0 0 1 206.895 54.154 Q 207.951 52.86 209.644 51.636 Q 212.513 49.56 218.056 47.573 A 72.419 72.419 0 0 1 218.579 47.388 Q 224.447 45.335 234.112 43.211 A 264.505 264.505 0 0 1 234.326 43.164 L 234.326 38.867 Q 234.326 29.004 225 29.004 A 23.157 23.157 0 0 0 223.014 29.084 Q 222.033 29.169 221.18 29.343 A 12.473 12.473 0 0 0 220.532 29.492 A 60.035 60.035 0 0 0 219.664 29.724 Q 218.496 30.046 217.945 30.264 A 5.275 5.275 0 0 0 217.92 30.273 L 217.92 38.965 L 210.645 38.965 A 6.403 6.403 0 0 1 208.637 38.655 A 5.954 5.954 0 0 1 208.105 38.452 Q 207.099 38.012 206.957 36.581 A 5.036 5.036 0 0 1 206.934 36.084 A 8.73 8.73 0 0 1 207.715 32.355 A 8.628 8.628 0 0 1 210.059 29.37 A 17.556 17.556 0 0 1 214.107 26.864 A 23.997 23.997 0 0 1 217.993 25.513 A 38.716 38.716 0 0 1 227.734 24.268 A 32.176 32.176 0 0 1 231.338 24.456 Q 235.004 24.87 237.354 26.196 A 11.306 11.306 0 0 1 240.406 28.659 A 10.191 10.191 0 0 1 242.139 31.519 A 18.528 18.528 0 0 1 243.28 35.884 A 24.28 24.28 0 0 1 243.506 39.258 L 243.506 67.285 A 2.301 2.301 0 0 0 243.614 68.007 A 1.911 1.911 0 0 0 244.116 68.799 A 2.485 2.485 0 0 0 245.605 69.482 L 250.439 69.775 Z M 356.836 69.775 L 356.836 73.682 L 342.041 73.682 L 340.723 67.773 L 339.233 68.848 A 31.273 31.273 0 0 1 338.097 69.627 Q 336.905 70.409 335.303 71.338 A 31.998 31.998 0 0 1 331.703 73.123 A 37.718 37.718 0 0 1 329.907 73.828 A 17.517 17.517 0 0 1 325.306 74.851 A 16.069 16.069 0 0 1 324.023 74.902 A 12.835 12.835 0 0 1 314.819 71.289 A 11.916 11.916 0 0 1 311.369 64.88 A 17.499 17.499 0 0 1 311.035 61.377 Q 311.035 58.594 312.036 56.201 A 8.34 8.34 0 0 1 313.292 54.154 Q 314.348 52.86 316.04 51.636 Q 318.909 49.56 324.452 47.573 A 72.419 72.419 0 0 1 324.976 47.388 Q 330.843 45.335 340.509 43.211 A 264.505 264.505 0 0 1 340.723 43.164 L 340.723 38.867 Q 340.723 29.004 331.396 29.004 A 23.157 23.157 0 0 0 329.411 29.084 Q 328.429 29.169 327.576 29.343 A 12.473 12.473 0 0 0 326.929 29.492 A 60.035 60.035 0 0 0 326.06 29.724 Q 324.892 30.046 324.341 30.264 A 5.275 5.275 0 0 0 324.316 30.273 L 324.316 38.965 L 317.041 38.965 A 6.403 6.403 0 0 1 315.033 38.655 A 5.954 5.954 0 0 1 314.502 38.452 Q 313.496 38.012 313.353 36.581 A 5.036 5.036 0 0 1 313.33 36.084 A 8.73 8.73 0 0 1 314.111 32.355 A 8.628 8.628 0 0 1 316.455 29.37 A 17.556 17.556 0 0 1 320.504 26.864 A 23.997 23.997 0 0 1 324.39 25.513 A 38.716 38.716 0 0 1 334.131 24.268 A 32.176 32.176 0 0 1 337.735 24.456 Q 341.4 24.87 343.75 26.196 A 11.306 11.306 0 0 1 346.803 28.659 A 10.191 10.191 0 0 1 348.535 31.519 A 18.528 18.528 0 0 1 349.677 35.884 A 24.28 24.28 0 0 1 349.902 39.258 L 349.902 67.285 A 2.301 2.301 0 0 0 350.011 68.007 A 1.911 1.911 0 0 0 350.513 68.799 A 2.485 2.485 0 0 0 352.002 69.482 L 356.836 69.775 Z M 275.488 73.682 L 261.084 73.682 L 261.084 7.178 L 253.516 7.178 L 253.516 3.857 L 266.406 0 L 270.41 0 L 270.41 27.979 Q 272.119 27.148 275.952 25.708 A 22.92 22.92 0 0 1 283.293 24.282 A 26.308 26.308 0 0 1 284.18 24.268 A 22.638 22.638 0 0 1 289.27 24.812 A 16.472 16.472 0 0 1 295.215 27.441 Q 299.658 30.615 301.929 35.864 A 28.023 28.023 0 0 1 304.172 45.931 A 32.568 32.568 0 0 1 304.199 47.266 A 32.567 32.567 0 0 1 303.26 55.225 A 27.335 27.335 0 0 1 301.221 60.767 Q 298.242 66.748 291.895 70.215 A 25.806 25.806 0 0 1 285.63 72.585 Q 282.617 73.322 279.075 73.564 A 52.693 52.693 0 0 1 275.488 73.682 Z M 140.43 64.258 L 140.43 69.971 A 54.334 54.334 0 0 1 136.369 71.926 A 69.472 69.472 0 0 1 132.837 73.34 A 25.247 25.247 0 0 1 126.4 74.772 A 30.766 30.766 0 0 1 123.535 74.902 A 25.105 25.105 0 0 1 117.201 74.135 A 20.244 20.244 0 0 1 111.401 71.631 A 21.877 21.877 0 0 1 103.442 62.72 A 26.783 26.783 0 0 1 100.863 53.871 A 33.627 33.627 0 0 1 100.635 49.902 A 34.939 34.939 0 0 1 101.181 43.55 Q 101.874 39.807 103.443 36.767 A 20.929 20.929 0 0 1 103.979 35.791 A 22.932 22.932 0 0 1 109.406 29.412 A 21.46 21.46 0 0 1 112.817 27.173 A 25.044 25.044 0 0 1 124.707 24.268 A 28.096 28.096 0 0 1 129.623 24.675 Q 132.431 25.174 134.732 26.285 A 16.515 16.515 0 0 1 135.767 26.831 A 9.815 9.815 0 0 1 138.31 28.868 Q 140.234 31.073 140.234 34.277 A 7.438 7.438 0 0 1 140.038 36.044 A 4.771 4.771 0 0 1 138.403 38.696 A 6.585 6.585 0 0 1 136.099 39.935 A 6.247 6.247 0 0 1 134.326 40.186 A 8.292 8.292 0 0 1 132.958 40.078 Q 132.158 39.944 131.488 39.644 A 5.217 5.217 0 0 1 131.445 39.624 Q 130.225 39.063 129.297 38.477 L 129.297 29.785 Q 127.59 28.805 126.1 28.553 A 6.022 6.022 0 0 0 125.098 28.467 A 12.616 12.616 0 0 0 120.787 29.183 A 11.289 11.289 0 0 0 117.456 31.079 A 15.145 15.145 0 0 0 113.9 35.338 A 19.957 19.957 0 0 0 112.549 38.232 A 26.101 26.101 0 0 0 111.144 43.907 A 34.538 34.538 0 0 0 110.84 48.584 A 28.565 28.565 0 0 0 111.494 54.8 A 24.216 24.216 0 0 0 112.695 58.667 A 17.252 17.252 0 0 0 115.637 63.533 A 15.605 15.605 0 0 0 118.237 65.918 A 13.74 13.74 0 0 0 123.843 68.286 A 18.99 18.99 0 0 0 127.393 68.604 A 19.759 19.759 0 0 0 134.033 67.48 A 28.059 28.059 0 0 0 138.02 65.695 A 34.417 34.417 0 0 0 140.43 64.258 Z M 93.799 62.598 L 93.799 68.701 A 51.271 51.271 0 0 1 84.741 73.096 Q 79.883 74.902 74.805 74.902 A 24.576 24.576 0 0 1 63.452 72.192 A 20.717 20.717 0 0 1 55.514 64.975 A 25.166 25.166 0 0 1 54.883 63.965 A 22.051 22.051 0 0 1 52.429 57.739 Q 51.777 54.977 51.645 51.764 A 40.482 40.482 0 0 1 51.611 50.098 A 34.018 34.018 0 0 1 52.277 43.213 A 25.786 25.786 0 0 1 54.639 36.475 A 22.725 22.725 0 0 1 60.323 29.349 A 21.861 21.861 0 0 1 62.988 27.466 A 22.492 22.492 0 0 1 73.012 24.346 A 27.439 27.439 0 0 1 75.098 24.268 Q 84.424 24.268 89.111 30.054 A 20.602 20.602 0 0 1 93.294 39.251 A 28.896 28.896 0 0 1 93.799 44.775 L 93.799 46.069 A 11.686 11.686 0 0 1 93.768 46.937 A 9.268 9.268 0 0 1 93.701 47.559 L 61.279 47.559 A 36.367 36.367 0 0 0 62.085 55.151 A 21.77 21.77 0 0 0 64.119 60.833 A 20.11 20.11 0 0 0 64.795 62.012 A 14.33 14.33 0 0 0 69.922 66.943 Q 73.145 68.799 77.979 68.799 A 18.954 18.954 0 0 0 86.225 66.883 A 21.827 21.827 0 0 0 86.353 66.821 A 66.478 66.478 0 0 0 91.512 64.043 A 56.17 56.17 0 0 0 93.799 62.598 Z M 270.41 31.787 L 270.41 68.896 L 272.144 68.945 A 130.92 130.92 0 0 0 273.798 68.982 A 96.668 96.668 0 0 0 275.293 68.994 Q 284.18 68.994 289.087 64.6 A 12.553 12.553 0 0 0 292.264 59.949 Q 293.886 56.024 293.987 50.071 A 47.155 47.155 0 0 0 293.994 49.268 A 35.941 35.941 0 0 0 293.641 44.054 Q 292.805 38.367 289.99 34.985 A 13.036 13.036 0 0 0 281.737 30.406 A 19.105 19.105 0 0 0 278.711 30.176 A 13.453 13.453 0 0 0 277.463 30.239 Q 276.17 30.36 274.487 30.713 A 52.675 52.675 0 0 0 272.988 31.049 Q 271.553 31.393 270.551 31.738 A 15.323 15.323 0 0 0 270.41 31.787 Z M 234.326 64.258 L 234.326 46.973 Q 227.737 48.596 223.786 50.243 A 34.678 34.678 0 0 0 223.608 50.317 Q 219.629 52.002 217.676 53.687 Q 216.243 54.922 215.533 56.184 A 5.817 5.817 0 0 0 215.112 57.104 A 10.728 10.728 0 0 0 214.502 60.693 A 9.164 9.164 0 0 0 216.298 66.136 A 11.364 11.364 0 0 0 216.479 66.382 A 6.381 6.381 0 0 0 221.155 68.953 A 8.971 8.971 0 0 0 222.021 68.994 A 12.492 12.492 0 0 0 224.843 68.659 A 15.193 15.193 0 0 0 226.172 68.286 A 28.597 28.597 0 0 0 229.35 67.031 A 25.386 25.386 0 0 0 230.176 66.626 A 71.548 71.548 0 0 0 231.059 66.165 Q 232.235 65.541 233.063 65.037 A 23.085 23.085 0 0 0 233.179 64.966 L 234.326 64.258 Z M 340.723 64.258 L 340.723 46.973 Q 334.134 48.596 330.183 50.243 A 34.678 34.678 0 0 0 330.005 50.317 Q 326.025 52.002 324.072 53.687 Q 322.64 54.922 321.93 56.184 A 5.817 5.817 0 0 0 321.509 57.104 A 10.728 10.728 0 0 0 320.898 60.693 A 9.164 9.164 0 0 0 322.695 66.136 A 11.364 11.364 0 0 0 322.876 66.382 A 6.381 6.381 0 0 0 327.552 68.953 A 8.971 8.971 0 0 0 328.418 68.994 A 12.492 12.492 0 0 0 331.24 68.659 A 15.193 15.193 0 0 0 332.568 68.286 A 28.597 28.597 0 0 0 335.746 67.031 A 25.386 25.386 0 0 0 336.572 66.626 A 71.548 71.548 0 0 0 337.456 66.165 Q 338.631 65.541 339.459 65.037 A 23.085 23.085 0 0 0 339.575 64.966 L 340.723 64.258 Z M 61.816 43.066 L 83.789 43.066 L 83.789 40.869 A 17.028 17.028 0 0 0 83.368 36.986 A 12.578 12.578 0 0 0 81.421 32.568 A 7.654 7.654 0 0 0 76.467 29.423 A 12.11 12.11 0 0 0 74.072 29.199 A 11.008 11.008 0 0 0 66.002 32.57 A 13.983 13.983 0 0 0 65.674 32.91 A 13.549 13.549 0 0 0 62.667 38.198 Q 61.978 40.398 61.816 43.066 Z" vector-effect="non-scaling-stroke"/></g></svg>